<?xml version="1.0" standalone="no"?><!DOCTYPE svg PUBLIC "-//W3C//DTD SVG 1.1//EN" "http://www.w3.org/Graphics/SVG/1.1/DTD/svg11.dtd"><svg t="1621301376614" class="icon" viewBox="0 0 1024 1024" version="1.1" xmlns="http://www.w3.org/2000/svg" p-id="2806" xmlns:xlink="http://www.w3.org/1999/xlink" width="200" height="200"><defs><style type="text/css"></style></defs><path d="M512 204.8c242.93376 0 471.04 153.88672 471.04 307.2S754.93376 819.2 512 819.2 40.96 665.31328 40.96 512s228.10624-307.2 471.04-307.2z m0 61.44C299.04896 266.24 102.4 398.90944 102.4 512s196.64896 245.76 409.6 245.76 409.6-132.66944 409.6-245.76-196.64896-245.76-409.6-245.76z m0 71.68a174.08 174.08 0 1 1 0 348.16 174.08 174.08 0 0 1 0-348.16z m0 61.44a112.64 112.64 0 1 0 0 225.28 112.64 112.64 0 0 0 0-225.28z" fill="#131415" p-id="2807"></path></svg>