<?xml version="1.0" standalone="no"?><!DOCTYPE svg PUBLIC "-//W3C//DTD SVG 1.1//EN" "http://www.w3.org/Graphics/SVG/1.1/DTD/svg11.dtd"><svg t="1621301421865" class="icon" viewBox="0 0 1024 1024" version="1.1" xmlns="http://www.w3.org/2000/svg" p-id="2951" xmlns:xlink="http://www.w3.org/1999/xlink" width="200" height="200"><defs><style type="text/css"></style></defs><path d="M874.04544 149.95456a30.72 30.72 0 0 1 0 43.45856L193.41312 874.04544a30.72 30.72 0 1 1-43.45856-43.45856L830.58688 149.95456a30.72 30.72 0 0 1 43.45856 0z m-14.29504 165.888C936.5504 373.30944 983.04 444.68224 983.04 512c0 153.31328-228.10624 307.2-471.04 307.2-43.95008 0-87.47008-4.75136-129.76128-13.94688a30.72 30.72 0 1 1 13.06624-60.04736C433.33632 753.47968 472.4736 757.76 512 757.76c212.95104 0 409.6-132.66944 409.6-245.76 0-44.89216-35.90144-100.00384-98.65216-146.96448a30.72 30.72 0 0 1 36.80256-49.19296zM512 204.8c44.3392 0 88.2688 4.85376 130.90816 14.21312a30.72 30.72 0 0 1-13.16864 60.0064A549.66272 549.66272 0 0 0 512 266.24C299.04896 266.24 102.4 398.90944 102.4 512c0 45.38368 36.70016 101.19168 100.6592 148.43904a30.72 30.72 0 1 1-36.51584 49.41824C88.39168 652.10368 40.96 580.01408 40.96 512c0-153.31328 228.10624-307.2 471.04-307.2z m172.42112 283.09504a174.08 174.08 0 0 1-197.0176 196.46464 30.72 30.72 0 1 1 8.6016-60.8256 112.64 112.64 0 0 0 127.54944-127.1808 30.72 30.72 0 1 1 60.86656-8.45824zM512 337.92c8.35584 0 16.62976 0.59392 24.82176 1.76128a30.72 30.72 0 1 1-8.704 60.8256 112.64 112.64 0 0 0-127.56992 128.02048 30.72 30.72 0 1 1-60.78464 8.9088A174.08 174.08 0 0 1 512 337.92z" fill="#131415" p-id="2952"></path></svg>